<svg width="32" height="32" viewBox="0 0 32 32" fill="none" xmlns="http://www.w3.org/2000/svg">
<path d="M12.9352 3.7241C14.523 1.79479 17.477 1.79479 19.0648 3.7241V3.7241C19.9047 4.74473 21.1976 5.28027 22.5132 5.1525V5.1525C25.0002 4.91098 27.089 6.99983 26.8475 9.48676V9.48676C26.7197 10.8024 27.2553 12.0953 28.2759 12.9352V12.9352C30.2052 14.523 30.2052 17.477 28.2759 19.0648V19.0648C27.2553 19.9047 26.7197 21.1976 26.8475 22.5132V22.5132C27.089 25.0002 25.0002 27.089 22.5132 26.8475V26.8475C21.1976 26.7197 19.9047 27.2553 19.0648 28.2759V28.2759C17.477 30.2052 14.523 30.2052 12.9352 28.2759V28.2759C12.0953 27.2553 10.8024 26.7197 9.48676 26.8475V26.8475C6.99983 27.089 4.91098 25.0002 5.1525 22.5132V22.5132C5.28027 21.1976 4.74473 19.9047 3.7241 19.0648V19.0648C1.79479 17.477 1.79479 14.523 3.7241 12.9352V12.9352C4.74473 12.0953 5.28027 10.8024 5.1525 9.48676V9.48676C4.91098 6.99983 6.99983 4.91098 9.48676 5.1525V5.1525C10.8024 5.28027 12.0953 4.74473 12.9352 3.7241V3.7241Z" fill="#1894E0"/>
<path d="M21.3337 13L14.0003 20.3333L10.667 17" stroke="white" stroke-width="2.5" stroke-linecap="round" stroke-linejoin="round"/>
</svg>
