<svg width="100" height="100" viewBox="0 0 100 100" fill="none" xmlns="http://www.w3.org/2000/svg">
<rect width="100" height="100" rx="12" fill="#104534"/>
<path d="M35 61C39.4183 61 43 64.5817 43 69C43 73.4183 39.4183 77 35 77C30.5817 77 27 73.4183 27 69C27 64.5817 30.5817 61 35 61ZM53 42C57.4183 42 61 45.5817 61 50C61 54.4183 57.4183 58 53 58H39C34.5817 58 31 54.4183 31 50C31 45.5817 34.5817 42 39 42H53ZM67 22C71.4183 22 75 25.5817 75 30C75 34.4183 71.4183 38 67 38H43C38.5817 38 35 34.4183 35 30C35 25.5817 38.5817 22 43 22H67Z" fill="white"/>
</svg>
